<mxfile host="app.diagrams.net" agent="Mozilla/5.0 (Windows NT 10.0; Win64; x64) AppleWebKit/537.36 (KHTML, like Gecko) Chrome/133.0.0.0 Safari/537.36" version="26.0.16">
  <diagram name="Page-1" id="KZFdH-nIH_u0-ly5RBB0">
    <mxGraphModel dx="3874" dy="1318" grid="1" gridSize="10" guides="1" tooltips="1" connect="1" arrows="1" fold="1" page="1" pageScale="1" pageWidth="827" pageHeight="1169" math="0" shadow="0">
      <root>
        <mxCell id="0" />
        <mxCell id="1" parent="0" />
        <mxCell id="of2VjOevq0eKOM0_ly4j-26" style="edgeStyle=orthogonalEdgeStyle;rounded=0;orthogonalLoop=1;jettySize=auto;html=1;" edge="1" parent="1" source="GOUrPmINWm-OZ7-MeIW6-1" target="of2VjOevq0eKOM0_ly4j-15">
          <mxGeometry relative="1" as="geometry">
            <mxPoint x="-1610" y="417.5000000000002" as="targetPoint" />
            <mxPoint x="-1140.0000000000005" y="422.4999999999998" as="sourcePoint" />
            <Array as="points">
              <mxPoint x="-1330" y="422" />
              <mxPoint x="-1330" y="422" />
            </Array>
          </mxGeometry>
        </mxCell>
        <mxCell id="of2VjOevq0eKOM0_ly4j-33" style="edgeStyle=orthogonalEdgeStyle;rounded=0;orthogonalLoop=1;jettySize=auto;html=1;" edge="1" parent="1" source="GOUrPmINWm-OZ7-MeIW6-1" target="of2VjOevq0eKOM0_ly4j-29">
          <mxGeometry relative="1" as="geometry" />
        </mxCell>
        <mxCell id="GOUrPmINWm-OZ7-MeIW6-1" value="Utilisateurs" style="swimlane;fontStyle=0;childLayout=stackLayout;horizontal=1;startSize=26;fillColor=none;horizontalStack=0;resizeParent=1;resizeParentMax=0;resizeLast=0;collapsible=1;marginBottom=0;html=1;" parent="1" vertex="1">
          <mxGeometry x="-1130" y="334.5" width="220" height="156" as="geometry" />
        </mxCell>
        <mxCell id="GOUrPmINWm-OZ7-MeIW6-2" value="&lt;u&gt;email&amp;nbsp;&lt;/u&gt;VARCHAR(250)" style="text;strokeColor=none;fillColor=none;align=left;verticalAlign=top;spacingLeft=4;spacingRight=4;overflow=hidden;rotatable=0;points=[[0,0.5],[1,0.5]];portConstraint=eastwest;whiteSpace=wrap;html=1;" parent="GOUrPmINWm-OZ7-MeIW6-1" vertex="1">
          <mxGeometry y="26" width="220" height="26" as="geometry" />
        </mxCell>
        <mxCell id="GOUrPmINWm-OZ7-MeIW6-3" value="nom VARCHAR(250)" style="text;strokeColor=none;fillColor=none;align=left;verticalAlign=top;spacingLeft=4;spacingRight=4;overflow=hidden;rotatable=0;points=[[0,0.5],[1,0.5]];portConstraint=eastwest;whiteSpace=wrap;html=1;" parent="GOUrPmINWm-OZ7-MeIW6-1" vertex="1">
          <mxGeometry y="52" width="220" height="26" as="geometry" />
        </mxCell>
        <mxCell id="GOUrPmINWm-OZ7-MeIW6-4" value="prenom VARCHAR (250)&lt;div&gt;&lt;br&gt;&lt;/div&gt;" style="text;strokeColor=none;fillColor=none;align=left;verticalAlign=top;spacingLeft=4;spacingRight=4;overflow=hidden;rotatable=0;points=[[0,0.5],[1,0.5]];portConstraint=eastwest;whiteSpace=wrap;html=1;" parent="GOUrPmINWm-OZ7-MeIW6-1" vertex="1">
          <mxGeometry y="78" width="220" height="26" as="geometry" />
        </mxCell>
        <mxCell id="GOUrPmINWm-OZ7-MeIW6-5" value="password VARCHAR(250)" style="text;strokeColor=none;fillColor=none;align=left;verticalAlign=top;spacingLeft=4;spacingRight=4;overflow=hidden;rotatable=0;points=[[0,0.5],[1,0.5]];portConstraint=eastwest;whiteSpace=wrap;html=1;" parent="GOUrPmINWm-OZ7-MeIW6-1" vertex="1">
          <mxGeometry y="104" width="220" height="26" as="geometry" />
        </mxCell>
        <mxCell id="GOUrPmINWm-OZ7-MeIW6-6" value="date-de-naissance DATE" style="text;strokeColor=none;fillColor=none;align=left;verticalAlign=top;spacingLeft=4;spacingRight=4;overflow=hidden;rotatable=0;points=[[0,0.5],[1,0.5]];portConstraint=eastwest;whiteSpace=wrap;html=1;" parent="GOUrPmINWm-OZ7-MeIW6-1" vertex="1">
          <mxGeometry y="130" width="220" height="26" as="geometry" />
        </mxCell>
        <mxCell id="of2VjOevq0eKOM0_ly4j-58" style="edgeStyle=orthogonalEdgeStyle;rounded=0;orthogonalLoop=1;jettySize=auto;html=1;entryX=0.5;entryY=0;entryDx=0;entryDy=0;" edge="1" parent="1" source="GOUrPmINWm-OZ7-MeIW6-9" target="GOUrPmINWm-OZ7-MeIW6-22">
          <mxGeometry relative="1" as="geometry" />
        </mxCell>
        <mxCell id="GOUrPmINWm-OZ7-MeIW6-9" value="Offres" style="swimlane;fontStyle=0;childLayout=stackLayout;horizontal=1;startSize=30;horizontalStack=0;resizeParent=1;resizeParentMax=0;resizeLast=0;collapsible=1;marginBottom=0;whiteSpace=wrap;html=1;" parent="1" vertex="1">
          <mxGeometry x="-570" y="350" width="200" height="120" as="geometry" />
        </mxCell>
        <mxCell id="GOUrPmINWm-OZ7-MeIW6-10" value="&lt;u&gt;id auto-increment&lt;/u&gt;" style="text;strokeColor=none;fillColor=none;align=left;verticalAlign=middle;spacingLeft=4;spacingRight=4;overflow=hidden;points=[[0,0.5],[1,0.5]];portConstraint=eastwest;rotatable=0;whiteSpace=wrap;html=1;" parent="GOUrPmINWm-OZ7-MeIW6-9" vertex="1">
          <mxGeometry y="30" width="200" height="30" as="geometry" />
        </mxCell>
        <mxCell id="GOUrPmINWm-OZ7-MeIW6-11" value="type-offre VARCHAR(50)" style="text;strokeColor=none;fillColor=none;align=left;verticalAlign=middle;spacingLeft=4;spacingRight=4;overflow=hidden;points=[[0,0.5],[1,0.5]];portConstraint=eastwest;rotatable=0;whiteSpace=wrap;html=1;" parent="GOUrPmINWm-OZ7-MeIW6-9" vertex="1">
          <mxGeometry y="60" width="200" height="30" as="geometry" />
        </mxCell>
        <mxCell id="GOUrPmINWm-OZ7-MeIW6-12" value="prix DECIMAL(5.2)" style="text;strokeColor=none;fillColor=none;align=left;verticalAlign=middle;spacingLeft=4;spacingRight=4;overflow=hidden;points=[[0,0.5],[1,0.5]];portConstraint=eastwest;rotatable=0;whiteSpace=wrap;html=1;" parent="GOUrPmINWm-OZ7-MeIW6-9" vertex="1">
          <mxGeometry y="90" width="200" height="30" as="geometry" />
        </mxCell>
        <mxCell id="GOUrPmINWm-OZ7-MeIW6-14" value="Epreuves" style="swimlane;fontStyle=0;childLayout=stackLayout;horizontal=1;startSize=26;fillColor=none;horizontalStack=0;resizeParent=1;resizeParentMax=0;resizeLast=0;collapsible=1;marginBottom=0;html=1;" parent="1" vertex="1">
          <mxGeometry x="200" y="346" width="180" height="78" as="geometry" />
        </mxCell>
        <mxCell id="GOUrPmINWm-OZ7-MeIW6-15" value="&lt;u&gt;id auto-increment&lt;/u&gt;" style="text;strokeColor=none;fillColor=none;align=left;verticalAlign=top;spacingLeft=4;spacingRight=4;overflow=hidden;rotatable=0;points=[[0,0.5],[1,0.5]];portConstraint=eastwest;whiteSpace=wrap;html=1;" parent="GOUrPmINWm-OZ7-MeIW6-14" vertex="1">
          <mxGeometry y="26" width="180" height="26" as="geometry" />
        </mxCell>
        <mxCell id="GOUrPmINWm-OZ7-MeIW6-16" value="nom VARCHAR(50)" style="text;strokeColor=none;fillColor=none;align=left;verticalAlign=top;spacingLeft=4;spacingRight=4;overflow=hidden;rotatable=0;points=[[0,0.5],[1,0.5]];portConstraint=eastwest;whiteSpace=wrap;html=1;" parent="GOUrPmINWm-OZ7-MeIW6-14" vertex="1">
          <mxGeometry y="52" width="180" height="26" as="geometry" />
        </mxCell>
        <mxCell id="GOUrPmINWm-OZ7-MeIW6-18" value="id épreuve= 4chiffres auto-increment dans l&#39;ordre alphabétique" style="text;html=1;align=center;verticalAlign=middle;resizable=0;points=[];autosize=1;strokeColor=none;fillColor=none;" parent="1" vertex="1">
          <mxGeometry x="835" y="360" width="360" height="30" as="geometry" />
        </mxCell>
        <mxCell id="of2VjOevq0eKOM0_ly4j-59" style="edgeStyle=orthogonalEdgeStyle;rounded=0;orthogonalLoop=1;jettySize=auto;html=1;" edge="1" parent="1" source="GOUrPmINWm-OZ7-MeIW6-22" target="of2VjOevq0eKOM0_ly4j-19">
          <mxGeometry relative="1" as="geometry" />
        </mxCell>
        <mxCell id="GOUrPmINWm-OZ7-MeIW6-22" value="Panier" style="swimlane;fontStyle=0;childLayout=stackLayout;horizontal=1;startSize=30;horizontalStack=0;resizeParent=1;resizeParentMax=0;resizeLast=0;collapsible=1;marginBottom=0;whiteSpace=wrap;html=1;" parent="1" vertex="1">
          <mxGeometry x="-545" y="730" width="150" height="120" as="geometry" />
        </mxCell>
        <mxCell id="GOUrPmINWm-OZ7-MeIW6-23" value="&lt;u&gt;id auto-increment&lt;/u&gt;" style="text;strokeColor=none;fillColor=none;align=left;verticalAlign=middle;spacingLeft=4;spacingRight=4;overflow=hidden;points=[[0,0.5],[1,0.5]];portConstraint=eastwest;rotatable=0;whiteSpace=wrap;html=1;" parent="GOUrPmINWm-OZ7-MeIW6-22" vertex="1">
          <mxGeometry y="30" width="150" height="30" as="geometry" />
        </mxCell>
        <mxCell id="GOUrPmINWm-OZ7-MeIW6-24" value="quantite INT" style="text;strokeColor=none;fillColor=none;align=left;verticalAlign=middle;spacingLeft=4;spacingRight=4;overflow=hidden;points=[[0,0.5],[1,0.5]];portConstraint=eastwest;rotatable=0;whiteSpace=wrap;html=1;" parent="GOUrPmINWm-OZ7-MeIW6-22" vertex="1">
          <mxGeometry y="60" width="150" height="30" as="geometry" />
        </mxCell>
        <mxCell id="GOUrPmINWm-OZ7-MeIW6-25" value="prix DECIMAL(10.2)" style="text;strokeColor=none;fillColor=none;align=left;verticalAlign=middle;spacingLeft=4;spacingRight=4;overflow=hidden;points=[[0,0.5],[1,0.5]];portConstraint=eastwest;rotatable=0;whiteSpace=wrap;html=1;" parent="GOUrPmINWm-OZ7-MeIW6-22" vertex="1">
          <mxGeometry y="90" width="150" height="30" as="geometry" />
        </mxCell>
        <mxCell id="GOUrPmINWm-OZ7-MeIW6-26" value="Pays" style="swimlane;fontStyle=0;childLayout=stackLayout;horizontal=1;startSize=26;fillColor=none;horizontalStack=0;resizeParent=1;resizeParentMax=0;resizeLast=0;collapsible=1;marginBottom=0;html=1;" parent="1" vertex="1">
          <mxGeometry x="-167.5" y="585" width="155" height="80" as="geometry" />
        </mxCell>
        <mxCell id="GOUrPmINWm-OZ7-MeIW6-27" value="&lt;u&gt;id&amp;nbsp; auto-inctement&lt;/u&gt;" style="text;strokeColor=none;fillColor=none;align=left;verticalAlign=top;spacingLeft=4;spacingRight=4;overflow=hidden;rotatable=0;points=[[0,0.5],[1,0.5]];portConstraint=eastwest;whiteSpace=wrap;html=1;" parent="GOUrPmINWm-OZ7-MeIW6-26" vertex="1">
          <mxGeometry y="26" width="155" height="26" as="geometry" />
        </mxCell>
        <mxCell id="GOUrPmINWm-OZ7-MeIW6-28" value="nom VARCHAR(50)" style="text;strokeColor=none;fillColor=none;align=left;verticalAlign=top;spacingLeft=4;spacingRight=4;overflow=hidden;rotatable=0;points=[[0,0.5],[1,0.5]];portConstraint=eastwest;whiteSpace=wrap;html=1;" parent="GOUrPmINWm-OZ7-MeIW6-26" vertex="1">
          <mxGeometry y="52" width="155" height="28" as="geometry" />
        </mxCell>
        <mxCell id="GOUrPmINWm-OZ7-MeIW6-30" value="id pays= 3chiffres auto-increment dans l&#39;ordre alphabétique" style="text;html=1;align=center;verticalAlign=middle;resizable=0;points=[];autosize=1;strokeColor=none;fillColor=none;" parent="1" vertex="1">
          <mxGeometry x="835" y="320" width="340" height="30" as="geometry" />
        </mxCell>
        <mxCell id="GOUrPmINWm-OZ7-MeIW6-31" value="Numéro de commander= NomPrenom+JJ-MM-AA-HHhMMmin" style="text;html=1;align=center;verticalAlign=middle;resizable=0;points=[];autosize=1;strokeColor=none;fillColor=none;" parent="1" vertex="1">
          <mxGeometry x="835" y="405" width="360" height="30" as="geometry" />
        </mxCell>
        <mxCell id="of2VjOevq0eKOM0_ly4j-52" style="edgeStyle=orthogonalEdgeStyle;rounded=0;orthogonalLoop=1;jettySize=auto;html=1;" edge="1" parent="1" source="of2VjOevq0eKOM0_ly4j-8" target="of2VjOevq0eKOM0_ly4j-45">
          <mxGeometry relative="1" as="geometry">
            <Array as="points">
              <mxPoint x="-1180" y="120" />
              <mxPoint x="-1180" y="191" />
            </Array>
          </mxGeometry>
        </mxCell>
        <mxCell id="of2VjOevq0eKOM0_ly4j-8" value="type" style="swimlane;fontStyle=0;childLayout=stackLayout;horizontal=1;startSize=26;fillColor=none;horizontalStack=0;resizeParent=1;resizeParentMax=0;resizeLast=0;collapsible=1;marginBottom=0;html=1;" vertex="1" parent="1">
          <mxGeometry x="-1120" y="60" width="220" height="104" as="geometry" />
        </mxCell>
        <mxCell id="of2VjOevq0eKOM0_ly4j-9" value="&lt;u&gt;id auto-increment&amp;nbsp;&lt;/u&gt;" style="text;strokeColor=none;fillColor=none;align=left;verticalAlign=top;spacingLeft=4;spacingRight=4;overflow=hidden;rotatable=0;points=[[0,0.5],[1,0.5]];portConstraint=eastwest;whiteSpace=wrap;html=1;" vertex="1" parent="of2VjOevq0eKOM0_ly4j-8">
          <mxGeometry y="26" width="220" height="26" as="geometry" />
        </mxCell>
        <mxCell id="of2VjOevq0eKOM0_ly4j-14" value="id user" style="text;strokeColor=none;fillColor=none;align=left;verticalAlign=top;spacingLeft=4;spacingRight=4;overflow=hidden;rotatable=0;points=[[0,0.5],[1,0.5]];portConstraint=eastwest;whiteSpace=wrap;html=1;" vertex="1" parent="of2VjOevq0eKOM0_ly4j-8">
          <mxGeometry y="52" width="220" height="26" as="geometry" />
        </mxCell>
        <mxCell id="of2VjOevq0eKOM0_ly4j-10" value="id compétition" style="text;strokeColor=none;fillColor=none;align=left;verticalAlign=top;spacingLeft=4;spacingRight=4;overflow=hidden;rotatable=0;points=[[0,0.5],[1,0.5]];portConstraint=eastwest;whiteSpace=wrap;html=1;" vertex="1" parent="of2VjOevq0eKOM0_ly4j-8">
          <mxGeometry y="78" width="220" height="26" as="geometry" />
        </mxCell>
        <mxCell id="of2VjOevq0eKOM0_ly4j-15" value="Téléphone" style="swimlane;fontStyle=0;childLayout=stackLayout;horizontal=1;startSize=26;fillColor=none;horizontalStack=0;resizeParent=1;resizeParentMax=0;resizeLast=0;collapsible=1;marginBottom=0;html=1;" vertex="1" parent="1">
          <mxGeometry x="-1630" y="360" width="220" height="104" as="geometry" />
        </mxCell>
        <mxCell id="of2VjOevq0eKOM0_ly4j-16" value="&lt;u&gt;id auto-increment&lt;/u&gt;" style="text;strokeColor=none;fillColor=none;align=left;verticalAlign=top;spacingLeft=4;spacingRight=4;overflow=hidden;rotatable=0;points=[[0,0.5],[1,0.5]];portConstraint=eastwest;whiteSpace=wrap;html=1;" vertex="1" parent="of2VjOevq0eKOM0_ly4j-15">
          <mxGeometry y="26" width="220" height="26" as="geometry" />
        </mxCell>
        <mxCell id="of2VjOevq0eKOM0_ly4j-17" value="mobile VARCHAR (50)" style="text;strokeColor=none;fillColor=none;align=left;verticalAlign=top;spacingLeft=4;spacingRight=4;overflow=hidden;rotatable=0;points=[[0,0.5],[1,0.5]];portConstraint=eastwest;whiteSpace=wrap;html=1;" vertex="1" parent="of2VjOevq0eKOM0_ly4j-15">
          <mxGeometry y="52" width="220" height="26" as="geometry" />
        </mxCell>
        <mxCell id="of2VjOevq0eKOM0_ly4j-18" value="fixe VARCHAR (50)" style="text;strokeColor=none;fillColor=none;align=left;verticalAlign=top;spacingLeft=4;spacingRight=4;overflow=hidden;rotatable=0;points=[[0,0.5],[1,0.5]];portConstraint=eastwest;whiteSpace=wrap;html=1;" vertex="1" parent="of2VjOevq0eKOM0_ly4j-15">
          <mxGeometry y="78" width="220" height="26" as="geometry" />
        </mxCell>
        <mxCell id="of2VjOevq0eKOM0_ly4j-19" value="Facturation" style="swimlane;fontStyle=0;childLayout=stackLayout;horizontal=1;startSize=30;horizontalStack=0;resizeParent=1;resizeParentMax=0;resizeLast=0;collapsible=1;marginBottom=0;whiteSpace=wrap;html=1;" vertex="1" parent="1">
          <mxGeometry x="-950" y="990" width="240" height="150" as="geometry" />
        </mxCell>
        <mxCell id="of2VjOevq0eKOM0_ly4j-20" value="&lt;u&gt;id auto-increment&lt;/u&gt;" style="text;strokeColor=none;fillColor=none;align=left;verticalAlign=middle;spacingLeft=4;spacingRight=4;overflow=hidden;points=[[0,0.5],[1,0.5]];portConstraint=eastwest;rotatable=0;whiteSpace=wrap;html=1;" vertex="1" parent="of2VjOevq0eKOM0_ly4j-19">
          <mxGeometry y="30" width="240" height="30" as="geometry" />
        </mxCell>
        <mxCell id="of2VjOevq0eKOM0_ly4j-21" value="numéro de devis INT" style="text;strokeColor=none;fillColor=none;align=left;verticalAlign=middle;spacingLeft=4;spacingRight=4;overflow=hidden;points=[[0,0.5],[1,0.5]];portConstraint=eastwest;rotatable=0;whiteSpace=wrap;html=1;" vertex="1" parent="of2VjOevq0eKOM0_ly4j-19">
          <mxGeometry y="60" width="240" height="30" as="geometry" />
        </mxCell>
        <mxCell id="of2VjOevq0eKOM0_ly4j-22" value="numéro de facturation INT" style="text;strokeColor=none;fillColor=none;align=left;verticalAlign=middle;spacingLeft=4;spacingRight=4;overflow=hidden;points=[[0,0.5],[1,0.5]];portConstraint=eastwest;rotatable=0;whiteSpace=wrap;html=1;" vertex="1" parent="of2VjOevq0eKOM0_ly4j-19">
          <mxGeometry y="90" width="240" height="30" as="geometry" />
        </mxCell>
        <mxCell id="of2VjOevq0eKOM0_ly4j-23" value="numero-de-commande VARCHAR (250)" style="text;strokeColor=none;fillColor=none;align=left;verticalAlign=middle;spacingLeft=4;spacingRight=4;overflow=hidden;points=[[0,0.5],[1,0.5]];portConstraint=eastwest;rotatable=0;whiteSpace=wrap;html=1;" vertex="1" parent="of2VjOevq0eKOM0_ly4j-19">
          <mxGeometry y="120" width="240" height="30" as="geometry" />
        </mxCell>
        <mxCell id="of2VjOevq0eKOM0_ly4j-25" style="edgeStyle=orthogonalEdgeStyle;rounded=0;orthogonalLoop=1;jettySize=auto;html=1;" edge="1" parent="1" source="GOUrPmINWm-OZ7-MeIW6-1" target="of2VjOevq0eKOM0_ly4j-8">
          <mxGeometry relative="1" as="geometry">
            <Array as="points">
              <mxPoint x="-1010" y="310" />
              <mxPoint x="-1010" y="310" />
            </Array>
          </mxGeometry>
        </mxCell>
        <mxCell id="of2VjOevq0eKOM0_ly4j-27" style="edgeStyle=orthogonalEdgeStyle;rounded=0;orthogonalLoop=1;jettySize=auto;html=1;entryX=0;entryY=0.5;entryDx=0;entryDy=0;" edge="1" parent="1" source="of2VjOevq0eKOM0_ly4j-29" target="GOUrPmINWm-OZ7-MeIW6-11">
          <mxGeometry relative="1" as="geometry">
            <Array as="points">
              <mxPoint x="-640" y="660" />
              <mxPoint x="-640" y="425" />
            </Array>
          </mxGeometry>
        </mxCell>
        <mxCell id="of2VjOevq0eKOM0_ly4j-29" value="Rôle" style="swimlane;fontStyle=0;childLayout=stackLayout;horizontal=1;startSize=30;horizontalStack=0;resizeParent=1;resizeParentMax=0;resizeLast=0;collapsible=1;marginBottom=0;whiteSpace=wrap;html=1;" vertex="1" parent="1">
          <mxGeometry x="-1140" y="600" width="240" height="120" as="geometry" />
        </mxCell>
        <mxCell id="of2VjOevq0eKOM0_ly4j-30" value="&lt;u&gt;id auto-increment&lt;/u&gt;" style="text;strokeColor=none;fillColor=none;align=left;verticalAlign=middle;spacingLeft=4;spacingRight=4;overflow=hidden;points=[[0,0.5],[1,0.5]];portConstraint=eastwest;rotatable=0;whiteSpace=wrap;html=1;" vertex="1" parent="of2VjOevq0eKOM0_ly4j-29">
          <mxGeometry y="30" width="240" height="30" as="geometry" />
        </mxCell>
        <mxCell id="of2VjOevq0eKOM0_ly4j-31" value="utilisateur VARCHAR (50)" style="text;strokeColor=none;fillColor=none;align=left;verticalAlign=middle;spacingLeft=4;spacingRight=4;overflow=hidden;points=[[0,0.5],[1,0.5]];portConstraint=eastwest;rotatable=0;whiteSpace=wrap;html=1;" vertex="1" parent="of2VjOevq0eKOM0_ly4j-29">
          <mxGeometry y="60" width="240" height="30" as="geometry" />
        </mxCell>
        <mxCell id="of2VjOevq0eKOM0_ly4j-32" value="Admin VARCHAR (50)" style="text;strokeColor=none;fillColor=none;align=left;verticalAlign=middle;spacingLeft=4;spacingRight=4;overflow=hidden;points=[[0,0.5],[1,0.5]];portConstraint=eastwest;rotatable=0;whiteSpace=wrap;html=1;" vertex="1" parent="of2VjOevq0eKOM0_ly4j-29">
          <mxGeometry y="90" width="240" height="30" as="geometry" />
        </mxCell>
        <mxCell id="of2VjOevq0eKOM0_ly4j-34" style="edgeStyle=orthogonalEdgeStyle;rounded=0;orthogonalLoop=1;jettySize=auto;html=1;" edge="1" parent="1" source="GOUrPmINWm-OZ7-MeIW6-9" target="of2VjOevq0eKOM0_ly4j-35">
          <mxGeometry relative="1" as="geometry">
            <mxPoint x="-240" y="240" as="targetPoint" />
            <Array as="points">
              <mxPoint x="-220" y="410" />
              <mxPoint x="-220" y="410" />
            </Array>
          </mxGeometry>
        </mxCell>
        <mxCell id="of2VjOevq0eKOM0_ly4j-41" style="edgeStyle=orthogonalEdgeStyle;rounded=0;orthogonalLoop=1;jettySize=auto;html=1;" edge="1" parent="1" source="of2VjOevq0eKOM0_ly4j-35" target="GOUrPmINWm-OZ7-MeIW6-26">
          <mxGeometry relative="1" as="geometry" />
        </mxCell>
        <mxCell id="of2VjOevq0eKOM0_ly4j-44" style="edgeStyle=orthogonalEdgeStyle;rounded=0;orthogonalLoop=1;jettySize=auto;html=1;exitX=0.5;exitY=0;exitDx=0;exitDy=0;entryX=1;entryY=0.5;entryDx=0;entryDy=0;" edge="1" parent="1" source="of2VjOevq0eKOM0_ly4j-35" target="of2VjOevq0eKOM0_ly4j-9">
          <mxGeometry relative="1" as="geometry">
            <mxPoint x="-20" y="246" as="sourcePoint" />
            <mxPoint x="-850" y="60" as="targetPoint" />
          </mxGeometry>
        </mxCell>
        <mxCell id="of2VjOevq0eKOM0_ly4j-35" value="Compétition" style="swimlane;fontStyle=0;childLayout=stackLayout;horizontal=1;startSize=26;fillColor=none;horizontalStack=0;resizeParent=1;resizeParentMax=0;resizeLast=0;collapsible=1;marginBottom=0;html=1;" vertex="1" parent="1">
          <mxGeometry x="-180" y="320" width="180" height="130" as="geometry" />
        </mxCell>
        <mxCell id="of2VjOevq0eKOM0_ly4j-36" value="&lt;u&gt;id auto-increment&lt;/u&gt;" style="text;strokeColor=none;fillColor=none;align=left;verticalAlign=top;spacingLeft=4;spacingRight=4;overflow=hidden;rotatable=0;points=[[0,0.5],[1,0.5]];portConstraint=eastwest;whiteSpace=wrap;html=1;" vertex="1" parent="of2VjOevq0eKOM0_ly4j-35">
          <mxGeometry y="26" width="180" height="26" as="geometry" />
        </mxCell>
        <mxCell id="of2VjOevq0eKOM0_ly4j-37" value="date-de compétition DATETIME" style="text;strokeColor=none;fillColor=none;align=left;verticalAlign=top;spacingLeft=4;spacingRight=4;overflow=hidden;rotatable=0;points=[[0,0.5],[1,0.5]];portConstraint=eastwest;whiteSpace=wrap;html=1;" vertex="1" parent="of2VjOevq0eKOM0_ly4j-35">
          <mxGeometry y="52" width="180" height="26" as="geometry" />
        </mxCell>
        <mxCell id="of2VjOevq0eKOM0_ly4j-38" value="jour-medaille BOOLEN" style="text;strokeColor=none;fillColor=none;align=left;verticalAlign=top;spacingLeft=4;spacingRight=4;overflow=hidden;rotatable=0;points=[[0,0.5],[1,0.5]];portConstraint=eastwest;whiteSpace=wrap;html=1;" vertex="1" parent="of2VjOevq0eKOM0_ly4j-35">
          <mxGeometry y="78" width="180" height="26" as="geometry" />
        </mxCell>
        <mxCell id="of2VjOevq0eKOM0_ly4j-40" value="nb-de-place-dispo INT" style="text;strokeColor=none;fillColor=none;align=left;verticalAlign=top;spacingLeft=4;spacingRight=4;overflow=hidden;rotatable=0;points=[[0,0.5],[1,0.5]];portConstraint=eastwest;whiteSpace=wrap;html=1;" vertex="1" parent="of2VjOevq0eKOM0_ly4j-35">
          <mxGeometry y="104" width="180" height="26" as="geometry" />
        </mxCell>
        <mxCell id="of2VjOevq0eKOM0_ly4j-45" value="Adresse" style="swimlane;fontStyle=0;childLayout=stackLayout;horizontal=1;startSize=26;fillColor=none;horizontalStack=0;resizeParent=1;resizeParentMax=0;resizeLast=0;collapsible=1;marginBottom=0;html=1;" vertex="1" parent="1">
          <mxGeometry x="-1630" y="100" width="220" height="182" as="geometry" />
        </mxCell>
        <mxCell id="of2VjOevq0eKOM0_ly4j-46" value="&lt;u&gt;id auto-increment&amp;nbsp;&lt;/u&gt;" style="text;strokeColor=none;fillColor=none;align=left;verticalAlign=top;spacingLeft=4;spacingRight=4;overflow=hidden;rotatable=0;points=[[0,0.5],[1,0.5]];portConstraint=eastwest;whiteSpace=wrap;html=1;" vertex="1" parent="of2VjOevq0eKOM0_ly4j-45">
          <mxGeometry y="26" width="220" height="26" as="geometry" />
        </mxCell>
        <mxCell id="of2VjOevq0eKOM0_ly4j-47" value="numéro de la rue INT" style="text;strokeColor=none;fillColor=none;align=left;verticalAlign=top;spacingLeft=4;spacingRight=4;overflow=hidden;rotatable=0;points=[[0,0.5],[1,0.5]];portConstraint=eastwest;whiteSpace=wrap;html=1;" vertex="1" parent="of2VjOevq0eKOM0_ly4j-45">
          <mxGeometry y="52" width="220" height="26" as="geometry" />
        </mxCell>
        <mxCell id="of2VjOevq0eKOM0_ly4j-48" value="nom de la rue VARCHAR(250)" style="text;strokeColor=none;fillColor=none;align=left;verticalAlign=top;spacingLeft=4;spacingRight=4;overflow=hidden;rotatable=0;points=[[0,0.5],[1,0.5]];portConstraint=eastwest;whiteSpace=wrap;html=1;" vertex="1" parent="of2VjOevq0eKOM0_ly4j-45">
          <mxGeometry y="78" width="220" height="26" as="geometry" />
        </mxCell>
        <mxCell id="of2VjOevq0eKOM0_ly4j-49" value="VilleVARCHAR (250)&lt;div&gt;&lt;br&gt;&lt;/div&gt;" style="text;strokeColor=none;fillColor=none;align=left;verticalAlign=top;spacingLeft=4;spacingRight=4;overflow=hidden;rotatable=0;points=[[0,0.5],[1,0.5]];portConstraint=eastwest;whiteSpace=wrap;html=1;" vertex="1" parent="of2VjOevq0eKOM0_ly4j-45">
          <mxGeometry y="104" width="220" height="26" as="geometry" />
        </mxCell>
        <mxCell id="of2VjOevq0eKOM0_ly4j-50" value="code postaleVARCHAR(250)" style="text;strokeColor=none;fillColor=none;align=left;verticalAlign=top;spacingLeft=4;spacingRight=4;overflow=hidden;rotatable=0;points=[[0,0.5],[1,0.5]];portConstraint=eastwest;whiteSpace=wrap;html=1;" vertex="1" parent="of2VjOevq0eKOM0_ly4j-45">
          <mxGeometry y="130" width="220" height="26" as="geometry" />
        </mxCell>
        <mxCell id="of2VjOevq0eKOM0_ly4j-51" value="pays VARCHAR(250)" style="text;strokeColor=none;fillColor=none;align=left;verticalAlign=top;spacingLeft=4;spacingRight=4;overflow=hidden;rotatable=0;points=[[0,0.5],[1,0.5]];portConstraint=eastwest;whiteSpace=wrap;html=1;" vertex="1" parent="of2VjOevq0eKOM0_ly4j-45">
          <mxGeometry y="156" width="220" height="26" as="geometry" />
        </mxCell>
        <mxCell id="of2VjOevq0eKOM0_ly4j-56" style="edgeStyle=orthogonalEdgeStyle;rounded=0;orthogonalLoop=1;jettySize=auto;html=1;" edge="1" parent="1" source="of2VjOevq0eKOM0_ly4j-37" target="GOUrPmINWm-OZ7-MeIW6-14">
          <mxGeometry relative="1" as="geometry" />
        </mxCell>
        <mxCell id="of2VjOevq0eKOM0_ly4j-60" style="edgeStyle=orthogonalEdgeStyle;rounded=0;orthogonalLoop=1;jettySize=auto;html=1;" edge="1" parent="1" source="of2VjOevq0eKOM0_ly4j-21" target="of2VjOevq0eKOM0_ly4j-29">
          <mxGeometry relative="1" as="geometry" />
        </mxCell>
      </root>
    </mxGraphModel>
  </diagram>
</mxfile>
